{
  "accessors": [
    {
      "bufferView": 2,
      "componentType": 5126,
      "count": 1294,
      "max": [
        0.9958515763282776,
        1.6704994440078735,
        0.26612186431884766
      ],
      "min": [
        -0.9958515763282776,
        0.013244736939668655,
        -0.1574380248785019
      ],
      "type": "VEC3"
    },
    {
      "bufferView": 2,
      "byteOffset": 15528,
      "componentType": 5126,
      "count": 1294,
      "type": "VEC3"
    },
    {
      "bufferView": 1,
      "componentType": 5126,
      "count": 1294,
      "type": "VEC2"
    },
    {
      "bufferView": 4,
      "componentType": 5123,
      "count": 1294,
      "type": "VEC4"
    },
    {
      "bufferView": 3,
      "componentType": 5126,
      "count": 1294,
      "type": "VEC4"
    },
    {
      "bufferView": 0,
      "componentType": 5125,
      "count": 7248,
      "type": "SCALAR"
    },
    {
      "bufferView": 5,
      "componentType": 5126,
      "count": 52,
      "type": "MAT4"
    }
  ],
  "asset": {
    "generator": "fab-model-conversion",
    "version": "2.0"
  },
  "bufferViews": [
    {
      "buffer": 0,
      "byteLength": 28992,
      "target": 34963
    },
    {
      "buffer": 0,
      "byteLength": 10352,
      "byteOffset": 28992,
      "byteStride": 8,
      "target": 34962
    },
    {
      "buffer": 0,
      "byteLength": 31056,
      "byteOffset": 39344,
      "byteStride": 12,
      "target": 34962
    },
    {
      "buffer": 0,
      "byteLength": 20704,
      "byteOffset": 70400,
      "byteStride": 16,
      "target": 34962
    },
    {
      "buffer": 0,
      "byteLength": 10352,
      "byteOffset": 91104,
      "byteStride": 8,
      "target": 34962
    },
    {
      "buffer": 0,
      "byteLength": 3328,
      "byteOffset": 101456
    }
  ],
  "buffers": [
    {
      "byteLength": 104784,
      "uri": "scene.bin"
    }
  ],
  "extensionsUsed": [
    "KHR_materials_specular"
  ],
  "images": [
    {
      "uri": "textures/humanoid_v3_baseColor.png"
    }
  ],
  "materials": [
    {
      "doubleSided": true,
      "emissiveFactor": [
        1.0,
        1.0,
        1.0
      ],
      "emissiveTexture": {
        "index": 0
      },
      "extensions": {
        "KHR_materials_specular": {
          "specularColorFactor": [
            1.0,
            1.0,
            1.0
          ],
          "specularFactor": 0.0
        }
      },
      "name": "humanoid_v3",
      "pbrMetallicRoughness": {
        "baseColorTexture": {
          "index": 0
        }
      }
    }
  ],
  "meshes": [
    {
      "name": "body_humanoid v3_0",
      "primitives": [
        {
          "attributes": {
            "JOINTS_0": 3,
            "NORMAL": 1,
            "POSITION": 0,
            "TEXCOORD_0": 2,
            "WEIGHTS_0": 4
          },
          "indices": 5,
          "material": 0,
          "mode": 4
        }
      ]
    }
  ],
  "nodes": [
    {
      "children": [
        1,
        60
      ],
      "matrix": [
        1.0,
        0.0,
        0.0,
        0.0,
        0.0,
        2.220446049250313e-16,
        -1.0,
        0.0,
        0.0,
        1.0,
        2.220446049250313e-16,
        0.0,
        0.0,
        0.0,
        0.0,
        1.0
      ],
      "name": "Sketchfab_model"
    },
    {
      "children": [
        2
      ],
      "matrix": [
        1.0,
        0.0,
        0.0,
        0.0,
        0.0,
        0.0,
        1.0,
        0.0,
        0.0,
        -1.0,
        0.0,
        0.0,
        0.0,
        0.0,
        0.0,
        1.0
      ],
      "name": "0d70ca25e78147eebc16826a79494f19.fbx"
    },
    {
      "children": [
        3
      ],
      "name": "RootNode"
    },
    {
      "children": [
        4
      ],
      "matrix": [
        1.0,
        0.0,
        0.0,
        0.0,
        0.0,
        0.9999999999999867,
        1.6292068494294585e-07,
        0.0,
        0.0,
        -1.6292068494294585e-07,
        0.9999999999999867,
        0.0,
        0.0,
        0.0,
        0.0,
        1.0
      ],
      "name": "Armature | Humanoid"
    },
    {
      "children": [
        5,
        59
      ],
      "name": "Object_4"
    },
    {
      "children": [
        6,
        51,
        55
      ],
      "name": "Hips_01"
    },
    {
      "children": [
        7
      ],
      "name": "Spine_02"
    },
    {
      "children": [
        8
      ],
      "name": "Spine1_03"
    },
    {
      "children": [
        9,
        11,
        31
      ],
      "name": "Spine2_04"
    },
    {
      "children": [
        10
      ],
      "name": "Neck_05"
    },
    {
      "name": "Head_00"
    },
    {
      "children": [
        12
      ],
      "name": "LeftShoulder_06"
    },
    {
      "children": [
        13
      ],
      "name": "LeftArm_07"
    },
    {
      "children": [
        14
      ],
      "name": "LeftForeArm_08"
    },
    {
      "children": [
        15,
        18,
        21,
        24,
        27,
        30
      ],
      "name": "LeftHand_09"
    },
    {
      "children": [
        16
      ],
      "name": "LeftHandThumb1_010"
    },
    {
      "children": [
        17
      ],
      "name": "LeftHandThumb2_011"
    },
    {
      "name": "LeftHandThumb3_012"
    },
    {
      "children": [
        19
      ],
      "name": "LeftHandIndex1_013"
    },
    {
      "children": [
        20
      ],
      "name": "LeftHandIndex2_014"
    },
    {
      "name": "LeftHandIndex3_015"
    },
    {
      "children": [
        22
      ],
      "name": "LeftHandMiddle1_016"
    },
    {
      "children": [
        23
      ],
      "name": "LeftHandMiddle2_017"
    },
    {
      "name": "LeftHandMiddle3_018"
    },
    {
      "children": [
        25
      ],
      "name": "LeftHandRing1_019"
    },
    {
      "children": [
        26
      ],
      "name": "LeftHandRing2_020"
    },
    {
      "name": "LeftHandRing3_021"
    },
    {
      "children": [
        28
      ],
      "name": "LeftHandPinky1_022"
    },
    {
      "children": [
        29
      ],
      "name": "LeftHandPinky2_023"
    },
    {
      "name": "LeftHandPinky3_024"
    },
    {
      "name": "LeftHand.Dummy_025"
    },
    {
      "children": [
        32
      ],
      "name": "RightShoulder_026"
    },
    {
      "children": [
        33
      ],
      "name": "RightArm_027"
    },
    {
      "children": [
        34
      ],
      "name": "RightForeArm_028"
    },
    {
      "children": [
        35,
        38,
        41,
        44,
        47,
        50
      ],
      "name": "RightHand_029"
    },
    {
      "children": [
        36
      ],
      "name": "RightHandThumb1_030"
    },
    {
      "children": [
        37
      ],
      "name": "RightHandThumb2_031"
    },
    {
      "name": "RightHandThumb3_032"
    },
    {
      "children": [
        39
      ],
      "name": "RightHandIndex1_033"
    },
    {
      "children": [
        40
      ],
      "name": "RightHandIndex2_034"
    },
    {
      "name": "RightHandIndex3_035"
    },
    {
      "children": [
        42
      ],
      "name": "RightHandMiddle1_036"
    },
    {
      "children": [
        43
      ],
      "name": "RightHandMiddle2_037"
    },
    {
      "name": "RightHandMiddle3_038"
    },
    {
      "children": [
        45
      ],
      "name": "RightHandRing1_039"
    },
    {
      "children": [
        46
      ],
      "name": "RightHandRing2_040"
    },
    {
      "name": "RightHandRing3_041"
    },
    {
      "children": [
        48
      ],
      "name": "RightHandPinky1_042"
    },
    {
      "children": [
        49
      ],
      "name": "RightHandPinky2_043"
    },
    {
      "name": "RightHandPinky3_044"
    },
    {
      "name": "RightHand.Dummy_045"
    },
    {
      "children": [
        52
      ],
      "name": "LeftUpLeg_046"
    },
    {
      "children": [
        53
      ],
      "name": "LeftLeg_047"
    },
    {
      "children": [
        54
      ],
      "name": "LeftFoot_048"
    },
    {
      "name": "LeftToeBase_049"
    },
    {
      "children": [
        56
      ],
      "name": "RightUpLeg_050"
    },
    {
      "children": [
        57
      ],
      "name": "RightLeg_051"
    },
    {
      "children": [
        58
      ],
      "name": "RightFoot_052"
    },
    {
      "name": "RightToeBase_053"
    },
    {
      "matrix": [
        1.0,
        0.0,
        0.0,
        0.0,
        0.0,
        1.000000000000044,
        1.6292068494294656e-07,
        0.0,
        0.0,
        -1.6292068494294656e-07,
        1.000000000000044,
        0.0,
        0.0,
        1.770175450666045e-09,
        -1.835887717890894e-10,
        1.0
      ],
      "name": "Object_59"
    },
    {
      "mesh": 0,
      "name": "Object_60",
      "skin": 0
    }
  ],
  "samplers": [
    {
      "magFilter": 9729,
      "minFilter": 9987,
      "wrapS": 10497,
      "wrapT": 10497
    }
  ],
  "scene": 0,
  "scenes": [
    {
      "name": "Sketchfab_Scene",
      "nodes": [
        0
      ]
    }
  ],
  "skins": [
    {
      "inverseBindMatrices": 6,
      "joints": [
        51,
        52,
        13,
        12,
        53,
        55,
        56,
        33,
        32,
        57,
        15,
        14,
        16,
        18,
        21,
        5,
        54,
        6,
        27,
        10,
        17,
        24,
        29,
        28,
        26,
        25,
        23,
        22,
        8,
        9,
        11,
        7,
        20,
        19,
        35,
        34,
        36,
        38,
        39,
        41,
        58,
        47,
        48,
        37,
        44,
        49,
        46,
        45,
        43,
        31,
        40,
        42
      ]
    }
  ],
  "textures": [
    {
      "sampler": 0,
      "source": 0
    }
  ]
}
